<?xml version="1.0" encoding="UTF-8"?>
<svg version="1.1" xmlns="http://www.w3.org/2000/svg" width="317" height="325">
<path d="M0 0 C1.31403809 0.00563965 2.62807617 0.0112793 3.98193359 0.01708984 C14.01908408 0.14198232 23.51484789 0.85330247 33.25 3.3125 C34.03987305 3.51117676 34.82974609 3.70985352 35.64355469 3.91455078 C66.79389144 12.02092496 95.55517221 28.6412634 115.25390625 54.5859375 C116.25 56.3125 116.25 56.3125 116.25 59.3125 C112.59997931 58.05950782 109.68086755 56.32303008 106.54492188 54.08862305 C75.28387562 31.86317571 37.72071819 24.1867559 0.16015625 30.40234375 C-37.92898855 37.22526882 -69.83250804 58.8191237 -92.23974609 90.12646484 C-112.9143049 120.0521033 -120.57584973 158.76259071 -114.26269531 194.4543457 C-112.11278582 205.14380763 -109.24663388 215.3740799 -104.75 225.3125 C-104.45754395 225.97008301 -104.16508789 226.62766602 -103.86376953 227.30517578 C-96.36755792 243.90478043 -85.75957556 258.10761103 -72.3984375 270.4921875 C-70.75 272.3125 -70.75 272.3125 -70.75 275.3125 C-87.42084232 270.44180209 -103.0567171 255.54638557 -113.75 242.3125 C-114.17345703 241.78881836 -114.59691406 241.26513672 -115.03320312 240.72558594 C-139.98988847 209.43097978 -150.07952307 170.44111675 -146.28515625 130.8046875 C-141.75250756 91.76693517 -122.72692727 55.92874216 -92.01953125 31.23828125 C-65.38889986 10.70077204 -33.60900194 -0.15247117 0 0 Z " fill="#EA5A1A" transform="translate(150.75,4.6875)"/>
<path d="M0 0 C1.31186279 0.00491455 2.62372559 0.0098291 3.9753418 0.01489258 C14.0150807 0.13564439 23.50167932 0.92171604 33.25 3.3125 C34.28108887 3.55395752 34.28108887 3.55395752 35.33300781 3.80029297 C67.91794229 11.64146652 97.13308239 33.08552722 114.9375 61.4375 C120.5186466 70.6463919 125.06607482 80.12269705 128.5625 90.3125 C128.79291992 90.97483643 129.02333984 91.63717285 129.26074219 92.31958008 C133.45332585 105.27749559 134.78034598 118.21521058 134.625 131.75 C134.62067963 132.4692868 134.61635925 133.18857361 134.61190796 133.92965698 C134.4333962 159.32304286 127.90069859 182.22811895 115.25 204.3125 C114.26 204.3125 113.27 204.3125 112.25 204.3125 C112.67572477 198.97285821 113.14490226 193.6644864 114.00390625 188.375 C120.3778932 149.05842069 115.36749973 107.7316954 92.6875 74.1875 C91.23430174 72.20981997 89.75580343 70.2504266 88.25 68.3125 C87.12078125 66.85263672 87.12078125 66.85263672 85.96875 65.36328125 C61.80448615 35.03381994 27.047237 20.23573545 -10.59375 14.91015625 C-27.28269545 13.03007443 -44.12246312 14.62574596 -60.75 16.3125 C-61.08 15.3225 -61.41 14.3325 -61.75 13.3125 C-54.07871449 9.67082939 -46.45939943 6.73972112 -38.25 4.5625 C-37.51676514 4.36438721 -36.78353027 4.16627441 -36.02807617 3.9621582 C-24.13690142 0.93735758 -12.24077422 -0.05474904 0 0 Z " fill="#008BCD" transform="translate(172.75,37.6875)"/>
<path d="M0 0 C25.04912914 -2.63983797 54.69995294 11.73456538 73.95776367 26.73266602 C85.7203951 36.29058318 96.05647119 47.0690581 104 60 C104.60972656 60.93714844 105.21945312 61.87429687 105.84765625 62.83984375 C123.13749542 90.54158607 127.89773836 128.24492605 121.01953125 159.94140625 C120.68899437 161.29657477 120.34905386 162.64948241 120 164 C119.82259277 164.69851074 119.64518555 165.39702148 119.46240234 166.11669922 C110.78137467 198.69816442 88.87045378 228.80500199 61 247.625 C60.35248779 248.06352295 59.70497559 248.5020459 59.0378418 248.95385742 C54.38044527 252 54.38044527 252 51 252 C52.51561647 248.58397323 54.52359122 246.02919008 56.9375 243.1875 C86.54233544 207.40509055 102.08651512 168.32916202 98.81396484 121.328125 C95.98640305 93.50169206 82.73145764 67.84487869 64.61328125 47.0078125 C62.83759706 44.96405043 61.10089458 42.91332961 59.38671875 40.8203125 C56.23084347 37.09111126 52.76373386 34.09845848 49 31 C48.11957031 30.25878906 47.23914063 29.51757812 46.33203125 28.75390625 C33.49087853 18.37134422 18.87577227 10.00601279 3.421875 4.18359375 C2.62265625 3.79300781 1.8234375 3.40242188 1 3 C0.67 2.01 0.34 1.02 0 0 Z " fill="#00A2E1" transform="translate(157,57)"/>
<path d="M0 0 C5.26235574 0.93887845 8.21913346 4.44077046 12 8 C13.18335938 9.08667969 13.18335938 9.08667969 14.390625 10.1953125 C32.78505902 27.72208454 46.5370006 53.52554906 49 79 C49.19722656 80.95679688 49.19722656 80.95679688 49.3984375 82.953125 C52.01964032 113.61335827 43.56979277 143.87369208 23.7421875 167.71484375 C21.54280727 170.19380622 19.29024533 172.60508167 17 175 C16.44957031 175.61359375 15.89914063 176.2271875 15.33203125 176.859375 C-2.35397877 195.899129 -30.64477359 205.58548249 -56 207 C-62.11492154 207.19805414 -67.9718624 207.07166891 -74 206 C-71.85031435 203.5801946 -70.21936421 202.51553639 -67.11328125 201.640625 C-65.96472656 201.30321289 -65.96472656 201.30321289 -64.79296875 200.95898438 C-63.97441406 200.72501953 -63.15585938 200.49105469 -62.3125 200.25 C-29.7332905 190.44147275 -1.22387933 171.25414301 15.25 140.9375 C20.24812098 131.36018128 23.46408888 121.47544595 26 111 C26.26554687 109.93265625 26.53109375 108.8653125 26.8046875 107.765625 C30.39482571 89.56903407 28.85018616 69.78401593 24 52 C23.80164551 51.25379395 23.60329102 50.50758789 23.39892578 49.73876953 C18.88144871 33.28969032 10.7207057 17.92478331 1.14453125 3.86328125 C0 2 0 2 0 0 Z " fill="#83C9E7" transform="translate(196,106)"/>
<path d="M0 0 C1.52988452 0.33232325 3.05983515 0.66434225 4.58984375 0.99609375 C26.6770826 6.05100862 48.22142077 16.69400884 65 32 C65.60457031 32.55010742 66.20914063 33.10021484 66.83203125 33.66699219 C85.22026896 50.61354854 97.60236566 70.81771898 105.375 94.5625 C105.60171387 95.2443335 105.82842773 95.92616699 106.06201172 96.62866211 C110.56374812 111.37193352 111.54185221 126.38005991 111.4375 141.6875 C111.43645264 142.5525415 111.43540527 143.41758301 111.43432617 144.30883789 C111.39964611 158.23095437 110.27764273 171.42119438 107 185 C107.99 184.67 108.98 184.34 110 184 C109.34 185.65 108.68 187.3 108 189 C107.01 189 106.02 189 105 189 C105.42572477 183.66035821 105.89490226 178.3519864 106.75390625 173.0625 C113.1278932 133.74592069 108.11749973 92.4191954 85.4375 58.875 C83.98430174 56.89731997 82.50580343 54.9379266 81 53 C80.2471875 52.02675781 79.494375 51.05351563 78.71875 50.05078125 C54.55448615 19.72131994 19.797237 4.92323545 -17.84375 -0.40234375 C-34.53269545 -2.28242557 -51.37246312 -0.68675404 -68 1 C-68.33 0.01 -68.66 -0.98 -69 -2 C-46.528765 -3.94797084 -22.05263337 -5.33950512 0 0 Z " fill="#001E2D" transform="translate(180,53)"/>
<path d="M0 0 C13.95857051 5.47094728 28.01179396 11.92784408 40 21 C40.54382324 21.40154297 41.08764648 21.80308594 41.64794922 22.21679688 C66.22811802 40.41419432 85.25904222 64.741518 95.25 93.875 C95.48412598 94.54490967 95.71825195 95.21481934 95.95947266 95.9050293 C100.30737391 109.22768442 101.52480586 122.45615553 101.375 136.375 C101.37067963 137.13969604 101.36635925 137.90439209 101.36190796 138.69226074 C101.2483172 155.85678845 99.01455639 170.8819398 93 187 C91.92949226 183.78847677 92.02176992 183.13651212 92.92578125 180.04296875 C93.14468018 179.26824219 93.3635791 178.49351562 93.58911133 177.6953125 C93.82782959 176.86773437 94.06654785 176.04015625 94.3125 175.1875 C103.92150904 139.8057206 99.93469991 102.84875457 82.00292969 70.74316406 C77.0361981 62.11062669 71.12632221 54.4982278 64.61328125 47.0078125 C62.83759706 44.96405043 61.10089458 42.91332961 59.38671875 40.8203125 C56.23084347 37.09111126 52.76373386 34.09845848 49 31 C48.11957031 30.25878906 47.23914063 29.51757812 46.33203125 28.75390625 C33.49087853 18.37134422 18.87577227 10.00601279 3.421875 4.18359375 C2.62265625 3.79300781 1.8234375 3.40242188 1 3 C0.67 2.01 0.34 1.02 0 0 Z " fill="#002432" transform="translate(157,57)"/>
<path d="M0 0 C1.9269568 1.4198629 3.4431841 1.89498823 5.78125 2.3125 C5.78125 3.3025 5.78125 4.2925 5.78125 5.3125 C2.13122931 4.05950782 -0.78788245 2.32303008 -3.92382812 0.08862305 C-35.18487438 -22.13682429 -72.74803181 -29.8132441 -110.30859375 -23.59765625 C-134.86441109 -19.19896201 -157.20594562 -8.83419506 -176.21875 7.3125 C-176.87875 6.9825 -177.53875 6.6525 -178.21875 6.3125 C-131.15172811 -39.14664226 -50.74236433 -38.59278414 0 0 Z " fill="#341305" transform="translate(261.21875,58.6875)"/>
<path d="M0 0 C12.06964388 11.42342806 19.23070271 28.86258281 24.3125 44.4375 C24.65788818 45.47124756 24.65788818 45.47124756 25.01025391 46.52587891 C29.56629528 61.29707982 30.54212543 76.33998146 30.4375 91.6875 C30.43645264 92.5525415 30.43540527 93.41758301 30.43432617 94.30883789 C30.39964611 108.23095437 29.27764273 121.42119438 26 135 C26.99 134.67 27.98 134.34 29 134 C28.34 135.65 27.68 137.3 27 139 C26.01 139 25.02 139 24 139 C24.42572477 133.66035821 24.89490226 128.3519864 25.75390625 123.0625 C32.08271234 84.02460924 27.50891529 41.24706687 3.875 8.375 C3.12992187 7.39273438 2.38484375 6.41046875 1.6171875 5.3984375 C0 3 0 3 0 0 Z " fill="#001C2B" transform="translate(261,103)"/>
<path d="M0 0 C3.26954202 0.56371414 4.82575883 1.49962266 7 4 C6.01 4.495 6.01 4.495 5 5 C5.30180176 5.50748779 5.60360352 6.01497559 5.91455078 6.5378418 C13.6140974 19.5313771 20.59958432 32.19783734 25.25 46.625 C25.49661377 47.38876953 25.74322754 48.15253906 25.99731445 48.93945312 C29.41015001 59.99840971 30.30107479 70.56322968 30.20581055 82.08154297 C30.18736657 84.39171231 30.18530282 86.70148284 30.18554688 89.01171875 C30.18063656 90.49479511 30.17481037 91.97786879 30.16796875 93.4609375 C30.16685593 94.14433197 30.1657431 94.82772644 30.16459656 95.53182983 C30.12888014 99.14175336 29.84736486 102.48797907 29 106 C28.67 106 28.34 106 28 106 C28.0314209 104.61216309 28.0314209 104.61216309 28.06347656 103.19628906 C28.64465249 77.33501185 28.64465249 77.33501185 24 52 C23.80164551 51.26539551 23.60329102 50.53079102 23.39892578 49.77392578 C18.88471945 33.30802599 10.72992847 17.93832589 1.14453125 3.86328125 C0 2 0 2 0 0 Z " fill="#1A282D" transform="translate(196,106)"/>
<path d="M0 0 C13.95857051 5.47094728 28.01179396 11.92784408 40 21 C40.54382324 21.40154297 41.08764648 21.80308594 41.64794922 22.21679688 C53.36088134 30.88821336 66.44626191 41.36247628 74 54 C73.67 54.99 73.34 55.98 73 57 C71.27054511 54.95857689 69.54142952 52.91686798 67.8125 50.875 C67.32974609 50.30523437 66.84699219 49.73546875 66.34960938 49.1484375 C65.86943359 48.58125 65.38925781 48.0140625 64.89453125 47.4296875 C64.41129395 46.85927734 63.92805664 46.28886719 63.43017578 45.70117188 C62.05831401 44.06936361 60.70678517 42.4222586 59.35546875 40.7734375 C56.20782894 37.06726127 52.74639429 34.08418384 49 31 C48.11957031 30.25878906 47.23914063 29.51757812 46.33203125 28.75390625 C33.49087853 18.37134422 18.87577227 10.00601279 3.421875 4.18359375 C2.62265625 3.79300781 1.8234375 3.40242188 1 3 C0.67 2.01 0.34 1.02 0 0 Z " fill="#00151E" transform="translate(157,57)"/>
<path d="M0 0 C0.495 0.99 0.495 0.99 1 2 C-18.83024263 30.86465116 -48.28109366 50.64961266 -82.5625 58.375 C-83.696875 58.58125 -84.83125 58.7875 -86 59 C-83.85031435 56.5801946 -82.21936421 55.51553639 -79.11328125 54.640625 C-78.34757813 54.41568359 -77.581875 54.19074219 -76.79296875 53.95898438 C-75.56513672 53.60803711 -75.56513672 53.60803711 -74.3125 53.25 C-43.6364181 44.01444181 -17.85076439 26.77614658 0 0 Z " fill="#0B1116" transform="translate(208,253)"/>
<path d="M0 0 C26.08157289 -1.311364 53.6718255 11.06026165 74.21875 26.6875 C76.1457068 28.1073629 77.6619341 28.58248823 80 29 C80 29.99 80 30.98 80 32 C76.34997931 30.74700782 73.43086755 29.01053008 70.29492188 26.77612305 C49.62104626 12.07776235 25.23588294 3.21367394 0 1 C0 0.67 0 0.34 0 0 Z " fill="#240D03" transform="translate(187,32)"/>
<path d="M0 0 C5.1975315 0.56407319 9.11406758 2.26182155 13.6875 4.625 C14.39084473 4.98400391 15.09418945 5.34300781 15.81884766 5.71289062 C29.41747221 12.7559782 40.73858341 21.60219952 51.6875 32.25 C52.4199292 32.94794678 53.1523584 33.64589355 53.90698242 34.36499023 C54.58092041 35.03344971 55.2548584 35.70190918 55.94921875 36.390625 C56.56112061 36.98907227 57.17302246 37.58751953 57.8034668 38.20410156 C59 40 59 40 58.69067383 42.22558594 C58.34879028 43.1039209 58.34879028 43.1039209 58 44 C57.5153125 43.3709375 57.030625 42.741875 56.53125 42.09375 C41.30702974 22.65359182 22.39032857 10.77659895 0 1 C0 0.67 0 0.34 0 0 Z " fill="#00121A" transform="translate(202,61)"/>
<path d="M0 0 C1 3 1 3 -0.484375 6.44921875 C-1.22562409 7.86935304 -1.98196153 9.28167336 -2.75 10.6875 C-3.15686035 11.44063477 -3.5637207 12.19376953 -3.98291016 12.96972656 C-10.66684461 25.08325136 -18.67408727 36.03733295 -27.78515625 46.42578125 C-30.0779791 48.98459718 -30.0779791 48.98459718 -32 52 C-31.67 52.66 -31.34 53.32 -31 54 C-33.475 54.495 -33.475 54.495 -36 55 C-34.48438353 51.58397323 -32.47640878 49.02919008 -30.0625 46.1875 C-18.2505197 31.9107405 -7.87826556 16.82544152 0 0 Z " fill="#001A24" transform="translate(244,254)"/>
<path d="M0 0 C0.33 0 0.66 0 1 0 C1.82555811 43.00840213 1.82555811 43.00840213 -3 63 C-1.515 62.505 -1.515 62.505 0 62 C-0.99 64.475 -0.99 64.475 -2 67 C-2.99 67 -3.98 67 -5 67 C-4.57852353 61.74456033 -4.13259802 56.51413883 -3.28125 51.30859375 C-0.5152016 34.27085674 -0.27454439 17.22197223 0 0 Z " fill="#00293D" transform="translate(290,175)"/>
<path d="M0 0 C0.66 0.33 1.32 0.66 2 1 C-3.6752381 7.3008549 -9.41568555 13.52827273 -15.375 19.5625 C-15.86194336 20.06233398 -16.34888672 20.56216797 -16.85058594 21.07714844 C-19.68024192 23.91457287 -22.47365524 26.09577383 -26 28 C-21.26152422 17.19035212 -9.17575166 7.12584969 0 0 Z " fill="#7A2F0D" transform="translate(60,35)"/>
<path d="M0 0 C0.33 0.66 0.66 1.32 1 2 C-5.50509887 11.4687399 -12.81068151 19.9467167 -21 28 C-21.99 27.67 -22.98 27.34 -24 27 C-23.24976563 26.35675781 -22.49953125 25.71351563 -21.7265625 25.05078125 C-13.1830791 17.56506247 -6.30251399 9.45377098 0 0 Z " fill="#1A282F" transform="translate(208,253)"/>
<path d="M0 0 C4.55193954 3.79777205 9.00343222 7.61352317 13 12 C13 12.99 13 13.98 13 15 C7.25 13.25 7.25 13.25 5 11 C5.99 11 6.98 11 8 11 C7.50628906 10.45730469 7.01257813 9.91460937 6.50390625 9.35546875 C5.86324219 8.64003906 5.22257812 7.92460937 4.5625 7.1875 C3.92441406 6.47980469 3.28632812 5.77210938 2.62890625 5.04296875 C1 3 1 3 0 0 Z " fill="#411907" transform="translate(67,265)"/>
<path d="M0 0 C0 0.33 0 0.66 0 1 C-2.66419818 1.67815954 -5.33065758 2.34265777 -8 3 C-8.74378906 3.19078125 -9.48757812 3.3815625 -10.25390625 3.578125 C-15.30303458 4.80747799 -19.80400642 5.18894522 -25 5 C-21.52179367 2.68119578 -18.8416981 2.18192851 -14.75 1.375 C-13.46609375 1.11460938 -12.1821875 0.85421875 -10.859375 0.5859375 C-7.16832367 0.02555521 -3.72587543 -0.1061778 0 0 Z " fill="#6F2A0C" transform="translate(135,6)"/>
<path d="M0 0 C6.64409958 -0.21432579 12.53205867 0.48766299 19 2 C19 2.33 19 2.66 19 3 C16.39521117 3.0809313 13.79293347 3.14045434 11.1875 3.1875 C10.08051758 3.22520508 10.08051758 3.22520508 8.95117188 3.26367188 C3.45025238 3.33834499 3.45025238 3.33834499 0.98828125 1.48828125 C0.66214844 0.99714844 0.33601562 0.50601563 0 0 Z " fill="#006E98" transform="translate(159,57)"/>
<path d="M0 0 C3.26954202 0.56371414 4.82575883 1.49962266 7 4 C5 5 5 5 2 5 C1.34 3.35 0.68 1.7 0 0 Z " fill="#29414A" transform="translate(196,106)"/>
<path d="M0 0 C4.03520597 1.58962659 8.01811282 3.28232318 12 5 C9.5332355 5.88336837 8.36140628 6.1312406 5.859375 5.22265625 C5.16328125 4.83980469 4.4671875 4.45695312 3.75 4.0625 C3.04359375 3.68222656 2.3371875 3.30195312 1.609375 2.91015625 C1.07828125 2.60980469 0.5471875 2.30945312 0 2 C0 1.34 0 0.68 0 0 Z " fill="#001824" transform="translate(157,57)"/>
<path d="M0 0 C0.66 0 1.32 0 2 0 C2 0.66 2 1.32 2 2 C2.99 1.67 3.98 1.34 5 1 C4.34 2.65 3.68 4.3 3 6 C2.01 6 1.02 6 0 6 C0 4.02 0 2.04 0 0 Z " fill="#003D5A" transform="translate(285,236)"/>
<path d="M0 0 C2 1.3125 2 1.3125 4 3 C4 3.99 4 4.98 4 6 C-0.875 4.25 -0.875 4.25 -2 2 C-1.34 2 -0.68 2 0 2 C0 1.34 0 0.68 0 0 Z " fill="#973A11" transform="translate(261,55)"/>
<path d="M0 0 C1 3 1 3 1 6 C-0.65 6.33 -2.3 6.66 -4 7 C-2.79618552 4.50638429 -1.54571278 2.31856917 0 0 Z " fill="#00212D" transform="translate(212,302)"/>
<path d="M0 0 C3.65316671 1.24976756 4.78065836 1.67098753 7 5 C5.35 5 3.7 5 2 5 C1.34 3.35 0.68 1.7 0 0 Z " fill="#659BB3" transform="translate(200,109)"/>
</svg>
