<?xml version="1.0" encoding="UTF-8"?>
<svg version="1.1" xmlns="http://www.w3.org/2000/svg" width="269" height="69">
<path d="M0 0 C-1.98 1.32 -3.96 2.64 -6 4 C-5.5359375 3.71125 -5.071875 3.4225 -4.59375 3.125 C3.57204171 -1.26258958 13.04561945 -1.3223263 21.97265625 0.66015625 C28.48685103 2.98593522 35.02578658 7.15028384 38.25 13.4375 C38.4975 14.283125 38.745 15.12875 39 16 C39.99889381 18.03040456 41.04625032 20.03153363 42.09765625 22.03515625 C45.02242588 28.40381048 44.34118596 35.29407021 43 42 C43.99 39.03 44.98 36.06 46 33 C46.33 33 46.66 33 47 33 C46.78607819 43.22935183 44.26640867 50.79839902 37.25 58.375 C33.39566221 61.98067083 29.16392652 64.70647205 24 66 C23.01 65.67 22.02 65.34 21 65 C22.98 63.68 24.96 62.36 27 61 C26.071875 61.474375 25.14375 61.94875 24.1875 62.4375 C15.14343798 66.23310033 6.04895303 65.34474195 -3 62 C-10.95960759 57.94622216 -17.66900933 49.67510965 -20.6015625 41.27734375 C-21.18526006 37.94111164 -21.1039585 34.62408388 -21.0625 31.25 C-21.05798828 30.55261719 -21.05347656 29.85523437 -21.04882812 29.13671875 C-21.0371002 27.42444197 -21.01916653 25.71220967 -21 24 C-21.66 27.63 -22.32 31.26 -23 35 C-23.33 35 -23.66 35 -24 35 C-24.5791051 24.73697072 -23.77378942 16.5756976 -17.375 8.25 C-13.15657623 3.73026025 -6.41649018 -2.48380265 0 0 Z M-18 15 C-17 17 -17 17 -17 17 Z M-19 17 C-18 19 -18 19 -18 19 Z M-20 19 C-19 21 -19 21 -19 21 Z M-3.296875 16.26953125 C-5.25405316 18.47309177 -7.15424471 20.70262373 -9 23 C-8.67 23.99 -8.34 24.98 -8 26 C-8 27.32 -8 28.64 -8 30 C-7.27935969 36.72183458 -5.20832205 41.54708344 0 46 C3.65288193 47.21762731 6.15754136 47.39075851 10 47 C12.3324223 45.54350922 14.01251848 43.93900636 16 42 C16.66 42.33 17.32 42.66 18 43 C19.18470607 36.83629549 19.18470607 36.83629549 17.5625 30.9375 C16.7890625 29.9784375 16.7890625 29.9784375 16 29 C17.875 29.125 17.875 29.125 20 30 C22.36841525 34.73683049 22.72933521 39.80984712 22 45 C20.90662064 48.13752339 19.55384865 51.0657233 18 54 C22.19985533 53.02328946 25.3445507 51.67401122 28.01953125 48.16796875 C30.52178977 42.63508636 30.70448141 35.62128165 29.5546875 29.7109375 C27.99545019 25.64258267 25.37574122 22.66919073 22 20 C17.517455 18.63574717 13.50801439 18.74777378 9 20 C5.95828087 23.27569753 5.06556545 25.22632772 4.6875 29.6875 C4.8741423 32.99863871 4.8741423 32.99863871 6 36 C2.69708981 32.98429939 2.07072341 30.83453629 1.6875 26.3125 C1.75767877 21.5491163 3.30441369 17.89266777 6 14 C8.75 11.5 8.75 11.5 11 10 C4.96322886 10 1.00211656 12.02171816 -3.296875 16.26953125 Z M-10 26 C-9 30 -9 30 -9 30 Z M32 30 C32 32.97 32 35.94 32 39 C32.33 39 32.66 39 33 39 C33 36.03 33 33.06 33 30 C32.67 30 32.34 30 32 30 Z M-11 31 C-10 33 -10 33 -10 33 Z M-10 36 C-9 39 -9 39 -9 39 Z M31 40 C32 42 32 42 32 42 Z M39 48 C40 50 40 50 40 50 Z M30 58 C29.67 58.66 29.34 59.32 29 60 C29.99 59.67 30.98 59.34 32 59 C31.34 58.67 30.68 58.34 30 58 Z " fill="#FBFBFB" transform="translate(24,1)"/>
<path d="M0 0 C3.27790143 1.77466001 5.43779774 3.6619506 6.58984375 7.24609375 C7.00234375 6.29734375 7.41484375 5.34859375 7.83984375 4.37109375 C9.71694406 1.0191289 10.12729653 0.48396898 13.58984375 -0.75390625 C19.55424525 -1.37867912 26.27379661 -1.94317982 31.77734375 0.80859375 C36.11798989 4.57048707 37.36070002 8.10741891 37.96484375 13.74609375 C37.40881975 18.93565107 35.96089199 22.66731093 32.52734375 26.62109375 C29.58984375 28.24609375 29.58984375 28.24609375 19.58984375 29.24609375 C19.25984375 36.17609375 18.92984375 43.10609375 18.58984375 50.24609375 C15.61984375 50.24609375 12.64984375 50.24609375 9.58984375 50.24609375 C7.29810298 46.80848259 7.29460328 45.3253776 7.17578125 41.265625 C7.13710937 40.10224609 7.0984375 38.93886719 7.05859375 37.74023438 C7.02765625 36.52529297 6.99671875 35.31035156 6.96484375 34.05859375 C6.92617187 32.83205078 6.8875 31.60550781 6.84765625 30.34179688 C6.75328272 27.31004719 6.66769826 24.27830534 6.58984375 21.24609375 C5.82542969 22.20773438 5.06101563 23.169375 4.2734375 24.16015625 C1.73914538 27.34832138 -0.3472381 28.41692678 -4.41015625 29.24609375 C-6.39015625 29.24609375 -8.37015625 29.24609375 -10.41015625 29.24609375 C-10.74015625 35.84609375 -11.07015625 42.44609375 -11.41015625 49.24609375 C-14.38015625 49.24609375 -17.35015625 49.24609375 -20.41015625 49.24609375 C-22.4445281 46.19453597 -22.66464207 45.55239642 -22.70068359 42.11352539 C-22.7134433 41.28579117 -22.726203 40.45805695 -22.73934937 39.60523987 C-22.74157501 38.71457321 -22.74380066 37.82390656 -22.74609375 36.90625 C-22.75275055 35.98774765 -22.75940735 35.0692453 -22.76626587 34.12290955 C-22.77639073 32.18034875 -22.78108294 30.23775318 -22.78076172 28.29516602 C-22.78513483 25.32314783 -22.82145551 22.35261475 -22.859375 19.38085938 C-22.86524319 17.49349466 -22.86921257 15.6061229 -22.87109375 13.71875 C-22.88546478 12.83010757 -22.89983582 11.94146515 -22.91464233 11.02589417 C-22.86894783 4.85567821 -22.86894783 4.85567821 -20.50634766 1.71655273 C-14.88202468 -2.22885808 -6.44485839 -2.01597677 0 0 Z M-10.41015625 7.24609375 C-11.72278196 8.33161741 -11.72278196 8.33161741 -11.5078125 10.96875 C-11.49621094 12.07089844 -11.48460937 13.17304688 -11.47265625 14.30859375 C-11.46363281 15.41332031 -11.45460937 16.51804687 -11.4453125 17.65625 C-11.43371094 18.51089844 -11.42210937 19.36554687 -11.41015625 20.24609375 C-7.65015138 20.53554814 -7.65015138 20.53554814 -4.53515625 18.68359375 C-2.93735662 15.22169456 -3.53264548 12.89113851 -4.41015625 9.24609375 C-5.07015625 8.58609375 -5.73015625 7.92609375 -6.41015625 7.24609375 C-7.73015625 7.24609375 -9.05015625 7.24609375 -10.41015625 7.24609375 Z M19.58984375 7.24609375 C18.27721804 8.33161741 18.27721804 8.33161741 18.4921875 10.96875 C18.50378906 12.07089844 18.51539063 13.17304688 18.52734375 14.30859375 C18.53636719 15.41332031 18.54539063 16.51804687 18.5546875 17.65625 C18.56628906 18.51089844 18.57789063 19.36554687 18.58984375 20.24609375 C22.18145984 20.45679577 22.18145984 20.45679577 25.40234375 19.12109375 C27.14941879 16.36255422 26.98187792 14.44770611 26.58984375 11.24609375 C25.48225355 8.82325137 25.48225355 8.82325137 23.58984375 7.24609375 C22.26984375 7.24609375 20.94984375 7.24609375 19.58984375 7.24609375 Z " fill="#FCFCFC" transform="translate(146.41015625,18.75390625)"/>
<path d="M0 0 C0 0.66 0 1.32 0 2 C0.66 2 1.32 2 2 2 C3.47265625 4.046875 3.47265625 4.046875 5.0625 6.75 C5.58972656 7.63171875 6.11695313 8.5134375 6.66015625 9.421875 C10.05698004 15.95803739 9.40928376 22.95358118 8 30 C8.99 27.03 9.98 24.06 11 21 C11.33 21 11.66 21 12 21 C11.78607819 31.22935183 9.26640867 38.79839902 2.25 46.375 C-1.60433779 49.98067083 -5.83607348 52.70647205 -11 54 C-11.99 53.67 -12.98 53.34 -14 53 C-12.02 51.68 -10.04 50.36 -8 49 C-8.928125 49.474375 -9.85625 49.94875 -10.8125 50.4375 C-19.8226532 54.21886952 -28.99103559 53.39115848 -38 50 C-40.61587264 48.51089683 -42.68424272 46.94734135 -45 45 C-41.52412513 43.84137504 -41.18229769 44.16439495 -38 45.5625 C-32.34626443 47.58565047 -27.65461261 46.69729143 -22 45 C-19.28643812 43.77195874 -19.28643812 43.77195874 -17 42 C-15.60576132 41.16400141 -14.20979002 40.33088853 -12.8125 39.5 C-9.92173431 37.77548968 -8.94290029 36.91435043 -7 34 C-5.75071828 26.52309588 -4.85343701 19.5773068 -9 13 C-11.16691117 10.16059916 -12.3741811 9.18079213 -15.8125 8.1875 C-19.48086581 7.97171378 -22.43559508 8.05845908 -26 9 C-28.6346101 11.88957237 -28.97614693 13.6600938 -29.25 17.5625 C-29.05668265 20.22061355 -28.8070223 22.47805531 -28 25 C-30.65354511 24.02703346 -31.79877896 23.34207577 -33.25 20.875 C-34.89976509 14.55090048 -34.5513036 9.52090651 -31.40234375 3.828125 C-28.38185674 -0.10944581 -24.20394085 -2.18802179 -19.625 -3.875 C-12.47231148 -4.21560422 -6.40065756 -3.20032878 0 0 Z M-3 18 C-3 20.97 -3 23.94 -3 27 C-2.67 27 -2.34 27 -2 27 C-2 24.03 -2 21.06 -2 18 C-2.33 18 -2.66 18 -3 18 Z M-4 28 C-3 30 -3 30 -3 30 Z M4 36 C5 38 5 38 5 38 Z M-5 46 C-5.33 46.66 -5.66 47.32 -6 48 C-5.01 47.67 -4.02 47.34 -3 47 C-3.66 46.67 -4.32 46.34 -5 46 Z " fill="#00A1D9" transform="translate(59,13)"/>
<path d="M0 0 C1.12946045 0.00241699 1.12946045 0.00241699 2.28173828 0.00488281 C9.06227907 0.15500549 13.3264548 1.50207354 18.5625 6.0625 C20.60992669 10.51866398 21.06469435 15.27423813 20.0625 20.0625 C18.01307946 23.35939392 15.46034395 25.72456979 12.625 28.375 C13.28628906 29.12265625 13.94757813 29.8703125 14.62890625 30.640625 C15.47324219 31.62546875 16.31757812 32.6103125 17.1875 33.625 C18.03441406 34.59953125 18.88132813 35.5740625 19.75390625 36.578125 C21.625 39.375 21.625 39.375 21.46484375 41.671875 C20.625 43.375 20.625 43.375 19.625 44.375 C14.61904853 45.13861972 14.61904853 45.13861972 11.625 44.375 C8.56988276 41.58313549 6.63151353 38.07916911 4.54296875 34.54296875 C3.47253261 32.73064331 3.47253261 32.73064331 1.625 30.375 C-0.025 30.045 -1.675 29.715 -3.375 29.375 C-3.375 34.325 -3.375 39.275 -3.375 44.375 C-6.675 44.375 -9.975 44.375 -13.375 44.375 C-15.06696504 40.99106992 -14.49486549 37.15022209 -14.47265625 33.4296875 C-14.4712413 32.5446756 -14.46982635 31.6596637 -14.46836853 30.74783325 C-14.4627614 27.91518809 -14.45020771 25.08262136 -14.4375 22.25 C-14.43248592 20.33203239 -14.42792285 18.41406354 -14.42382812 16.49609375 C-14.41278966 11.78903218 -14.39552025 7.0820294 -14.375 2.375 C-9.35371978 0.58646441 -5.27196408 -0.01166106 0 0 Z M-3.375 8.375 C-3.375 12.995 -3.375 17.615 -3.375 22.375 C3.53357083 22.69961812 3.53357083 22.69961812 8.625 19.375 C9.96050847 16.52872409 9.96050847 16.52872409 9.625 13.375 C7.81503883 10.31421761 7.81503883 10.31421761 4.625 8.375 C1.81676458 7.96568155 -0.51415926 8.13255587 -3.375 8.375 Z " fill="#FCFCFC" transform="translate(87.375,-0.375)"/>
<path d="M0 0 C2.97184654 1.85648685 4.99586063 3.87418408 5.95703125 7.23828125 C6.20703125 10.86328125 6.20703125 10.86328125 5.95703125 14.23828125 C3.11089101 17.08442149 0.15333983 16.69407201 -3.66796875 16.86328125 C-4.374375 16.90195312 -5.08078125 16.940625 -5.80859375 16.98046875 C-7.55295399 17.07475849 -9.29792566 17.15761016 -11.04296875 17.23828125 C-11.04296875 17.89828125 -11.04296875 18.55828125 -11.04296875 19.23828125 C-5.69667273 20.24071175 -1.41922109 20.0871632 3.95703125 19.23828125 C4.64453125 22.05078125 4.64453125 22.05078125 4.95703125 25.23828125 C3.60512966 27.30171 2.53256479 28.00380462 0.26953125 28.92578125 C-6.36142829 29.82185686 -11.12212933 29.58969979 -17.04296875 26.23828125 C-20.7229629 23.26296683 -21.83255277 21.83143083 -22.453125 17.1328125 C-22.71769628 6.95256985 -22.71769628 6.95256985 -19.04296875 2.23828125 C-13.68466061 -1.89114003 -6.32811098 -2.35942952 0 0 Z M-11.04296875 7.23828125 C-11.37296875 7.89828125 -11.70296875 8.55828125 -12.04296875 9.23828125 C-9.40296875 9.23828125 -6.76296875 9.23828125 -4.04296875 9.23828125 C-4.37296875 8.57828125 -4.70296875 7.91828125 -5.04296875 7.23828125 C-7.02296875 7.23828125 -9.00296875 7.23828125 -11.04296875 7.23828125 Z " fill="#FCFCFC" transform="translate(220.04296875,18.76171875)"/>
<path d="M0 0 C0 12.21 0 24.42 0 37 C-2.97 37 -5.94 37 -9 37 C-11.13405461 32.73189078 -11.26112342 29.78172107 -11.1953125 25.171875 C-11.1924826 24.42286926 -11.18965271 23.67386353 -11.18673706 22.90216064 C-11.1755726 20.51794224 -11.15047531 18.13410421 -11.125 15.75 C-11.11496535 14.13021377 -11.10584035 12.51042164 -11.09765625 10.890625 C-11.07564555 6.92693754 -11.04114175 2.96353319 -11 -1 C-6.23488376 -2.40150478 -5.27770614 -1.75923538 0 0 Z " fill="#FBFBFB" transform="translate(196,10)"/>
<path d="M0 0 C0.66 0.66 1.32 1.32 2 2 C2.66 1.34 3.32 0.68 4 0 C7.2578125 -0.1953125 7.2578125 -0.1953125 11.125 -0.125 C13.04699219 -0.09792969 13.04699219 -0.09792969 15.0078125 -0.0703125 C16.48894531 -0.03550781 16.48894531 -0.03550781 18 0 C18 1.65 18 3.3 18 5 C16.68 5 15.36 5 14 5 C14 9.29 14 13.58 14 18 C12.02 18 10.04 18 8 18 C8 13.71 8 9.42 8 5 C6.68 5 5.36 5 4 5 C1.90825025 9.8371713 1.8941818 12.88559082 3 18 C0.125 18.1875 0.125 18.1875 -3 18 C-3.66 17.01 -4.32 16.02 -5 15 C-5.33 15.99 -5.66 16.98 -6 18 C-7.98 18 -9.96 18 -12 18 C-12 12.06 -12 6.12 -12 0 C-7.30052291 -1.17486927 -4.72982389 -0.8391623 0 0 Z M-6 4 C-6 5.32 -6 6.64 -6 8 C-5.01 7.67 -4.02 7.34 -3 7 C-3 6.34 -3 5.68 -3 5 C-3.99 4.67 -4.98 4.34 -6 4 Z " fill="#FCFCFC" transform="translate(251,51)"/>
<path d="M0 0 C1.6730957 1.1418457 1.6730957 1.1418457 3 3 C3.34057617 5.72729492 3.34057617 5.72729492 3.29296875 8.98046875 C3.28330078 10.14384766 3.27363281 11.30722656 3.26367188 12.50585938 C3.23853516 13.72080078 3.21339844 14.93574219 3.1875 16.1875 C3.17396484 17.41404297 3.16042969 18.64058594 3.14648438 19.90429688 C3.11108741 22.93663664 3.0617076 25.96809996 3 29 C1.54207116 29.05399736 0.08357288 29.09279177 -1.375 29.125 C-2.59316406 29.15980469 -2.59316406 29.15980469 -3.8359375 29.1953125 C-6 29 -6 29 -8 27 C-8.22705078 24.38623047 -8.22705078 24.38623047 -8.1953125 21.1171875 C-8.18886719 19.95058594 -8.18242188 18.78398438 -8.17578125 17.58203125 C-8.15902344 16.35871094 -8.14226562 15.13539062 -8.125 13.875 C-8.11597656 12.64394531 -8.10695313 11.41289062 -8.09765625 10.14453125 C-8.07402548 7.09616185 -8.04108054 4.04817618 -8 1 C-5.20129973 -0.39935013 -3.09501208 -0.25265405 0 0 Z " fill="#FCFCFC" transform="translate(119,18)"/>
<path d="M0 0 C2.58640487 2.13378402 3.73233972 3.6198767 4.375 6.93359375 C4.58563628 10.41567474 4.09926191 12.76177142 2.75 16 C-1.15847112 18.84252445 -4.4927399 18.56055963 -9.22265625 18.56640625 C-12 18 -12 18 -13.84375 16.27734375 C-15.86219627 12.30182289 -15.66465511 8.34193176 -15 4 C-11.18271917 -1.39684531 -6.09993624 -1.75511244 0 0 Z M-9 6 C-9.41666667 9 -9.41666667 9 -9 12 C-8.34 12.66 -7.68 13.32 -7 14 C-4.89179203 13.6814823 -4.89179203 13.6814823 -3 13 C-2.23283149 10.14921909 -2.23283149 10.14921909 -2 7 C-3.25117962 5.07994865 -3.25117962 5.07994865 -5 4 C-6.46225016 3.90754997 -6.46225016 3.90754997 -9 6 Z " fill="#FAFAFA" transform="translate(233,51)"/>
<path d="M0 0 C1.49058721 2.70168932 1.31547795 4.78391171 1 7.8125 C0.01 9.2975 0.01 9.2975 -1 10.8125 C-0.34 11.4725 0.32 12.1325 1 12.8125 C1 14.1325 1 15.4525 1 16.8125 C-1.875 17 -1.875 17 -5 16.8125 C-5.66 15.8225 -6.32 14.8325 -7 13.8125 C-7.33 14.8025 -7.66 15.7925 -8 16.8125 C-9.98 16.8125 -11.96 16.8125 -14 16.8125 C-14 10.8725 -14 4.9325 -14 -1.1875 C-9.11862923 -2.40784269 -4.45584126 -2.64565575 0 0 Z M-8 2.8125 C-8 4.1325 -8 5.4525 -8 6.8125 C-7.01 6.4825 -6.02 6.1525 -5 5.8125 C-5 5.1525 -5 4.4925 -5 3.8125 C-5.99 3.4825 -6.98 3.1525 -8 2.8125 Z " fill="#FAFAFA" transform="translate(184,52.1875)"/>
<path d="M0 0 C0.33 1.65 0.66 3.3 1 5 C-0.65 5.33 -2.3 5.66 -4 6 C-3.195625 6.474375 -2.39125 6.94875 -1.5625 7.4375 C1 9 1 9 2 10 C1.28 16.72 1.28 16.72 0 18 C-2.01964199 18.07244053 -4.04167124 18.08377188 -6.0625 18.0625 C-7.71958984 18.04896484 -7.71958984 18.04896484 -9.41015625 18.03515625 C-10.26480469 18.02355469 -11.11945313 18.01195313 -12 18 C-12.33 16.35 -12.66 14.7 -13 13 C-9.37673261 11.7922442 -8.35853631 12.45688872 -5 14 C-5 13.34 -5 12.68 -5 12 C-5.94875 11.71125 -6.8975 11.4225 -7.875 11.125 C-11 10 -11 10 -13 8 C-12.625 4.375 -12.625 4.375 -12 1 C-7.67265609 -1.22923777 -4.71599818 -0.92470553 0 0 Z " fill="#F6F6F6" transform="translate(215,51)"/>
<path d="M0 0 C1.65322266 0.01740234 1.65322266 0.01740234 3.33984375 0.03515625 C4.99693359 0.04869141 4.99693359 0.04869141 6.6875 0.0625 C7.54214844 0.07410156 8.39679688 0.08570313 9.27734375 0.09765625 C9.83984375 2.03515625 9.83984375 2.03515625 10.27734375 4.09765625 C9.27734375 5.09765625 9.27734375 5.09765625 5.71484375 5.16015625 C4.58046875 5.13953125 3.44609375 5.11890625 2.27734375 5.09765625 C2.27734375 5.75765625 2.27734375 6.41765625 2.27734375 7.09765625 C4.58734375 7.09765625 6.89734375 7.09765625 9.27734375 7.09765625 C9.27734375 8.41765625 9.27734375 9.73765625 9.27734375 11.09765625 C6.96734375 11.42765625 4.65734375 11.75765625 2.27734375 12.09765625 C2.27734375 12.75765625 2.27734375 13.41765625 2.27734375 14.09765625 C4.91734375 14.09765625 7.55734375 14.09765625 10.27734375 14.09765625 C10.27734375 15.41765625 10.27734375 16.73765625 10.27734375 18.09765625 C5.65734375 18.09765625 1.03734375 18.09765625 -3.72265625 18.09765625 C-3.74949937 15.28509344 -3.76941813 12.47278384 -3.78515625 9.66015625 C-3.79353516 8.85771484 -3.80191406 8.05527344 -3.81054688 7.22851562 C-3.81917055 5.18470404 -3.77493775 3.14081723 -3.72265625 1.09765625 C-2.72265625 0.09765625 -2.72265625 0.09765625 0 0 Z " fill="#FBFBFB" transform="translate(190.72265625,50.90234375)"/>
<path d="M0 0 C2.5 1.5625 2.5 1.5625 4 4 C4.5625 7.5 4.5625 7.5 4 11 C1.9375 13.5 1.9375 13.5 -1 15 C-4.46758942 14.94021398 -6.88826749 14.60965977 -9.9375 12.9375 C-11.69043126 9.74097829 -11.51780725 6.55067826 -11 3 C-8.88355448 -1.23289104 -4.17330147 -0.73893467 0 0 Z " fill="#EC7C19" transform="translate(120,2)"/>
<path d="M0 0 C-0.58007812 0.35191406 -1.16015625 0.70382813 -1.7578125 1.06640625 C-7.14350691 4.47023621 -11.23036851 7.86758628 -15 13 C-15.45246094 13.57105469 -15.90492187 14.14210938 -16.37109375 14.73046875 C-20.74446428 20.81685088 -21.74442527 27.73195767 -23 35 C-23.33 35 -23.66 35 -24 35 C-24.5791051 24.73697072 -23.77378942 16.5756976 -17.375 8.25 C-13.15657623 3.73026025 -6.41649018 -2.48380265 0 0 Z " fill="#ECECEC" transform="translate(24,1)"/>
<path d="M0 0 C2.09315085 2.09315085 2.49582255 3.13403499 3.375 5.875 C4.64765406 9.41657771 5.97281214 11.63500948 9 14 C12.6684759 15.2228253 15.13659719 15.38634028 19 15 C21.60554182 13.55303891 23.67467449 11.89822491 26 10 C26 14 26 14 23.375 16.6875 C20.29790834 19.02234238 17.93181492 19.91975888 14 20 C10.125 19.0625 10.125 19.0625 7 18 C7 17.34 7 16.68 7 16 C6.0409375 15.8453125 6.0409375 15.8453125 5.0625 15.6875 C4.381875 15.460625 3.70125 15.23375 3 15 C2.67 14.01 2.34 13.02 2 12 C1.34 11.34 0.68 10.68 0 10 C-0.125 6.875 -0.125 6.875 0 4 C-0.66 4 -1.32 4 -2 4 C-1.34 2.68 -0.68 1.36 0 0 Z " fill="#EDEDED" transform="translate(15,32)"/>
<path d="M0 0 C0.33 0 0.66 0 1 0 C0.78607819 10.22935183 -1.73359133 17.79839902 -8.75 25.375 C-12.60433779 28.98067083 -16.83607348 31.70647205 -22 33 C-22.99 32.67 -23.98 32.34 -25 32 C-24.26394531 31.56429687 -23.52789062 31.12859375 -22.76953125 30.6796875 C-17.16300456 27.25800278 -12.79989488 24.36455748 -9 19 C-8.58363281 18.50242187 -8.16726562 18.00484375 -7.73828125 17.4921875 C-3.55410097 12.29023364 -1.86239661 6.33631025 0 0 Z " fill="#009AD2" transform="translate(70,34)"/>
<path d="M0 0 C4.2907495 2.5744497 6.39612469 5.27278855 8 10 C8.66658458 16.64758323 8.77425173 22.33862241 5 28 C3.88743461 24.66230383 4.19314033 24.22743866 5 21 C5.48999006 14.50763172 4.15594755 9.82503472 0.1875 4.625 C-3.56482113 1.83756145 -6.84189679 1.84987551 -11.375 2.4375 C-12.674375 2.7159375 -12.674375 2.7159375 -14 3 C-9.88407457 -1.50791832 -5.71927223 -1.43261614 0 0 Z " fill="#F3F3F3" transform="translate(48,19)"/>
<path d="M0 0 C1.2065625 0.0309375 1.2065625 0.0309375 2.4375 0.0625 C2.7675 1.7125 3.0975 3.3625 3.4375 5.0625 C1.0625 6.125 1.0625 6.125 -1.5625 7.0625 C-2.2225 6.7325 -2.8825 6.4025 -3.5625 6.0625 C-3.605221 4.39638095 -3.60313832 2.72867115 -3.5625 1.0625 C-2.5625 0.0625 -2.5625 0.0625 0 0 Z " fill="#F4F4F4" transform="translate(35.5625,29.9375)"/>
</svg>
